<svg width="45" height="38" viewBox="0 0 45 38" fill="none" xmlns="http://www.w3.org/2000/svg">
<path d="M31.875 34.2H9.375C7.88316 34.2 6.45242 33.5995 5.39752 32.5305C4.34263 31.4615 3.75 30.0117 3.75 28.5V13.3C3.75 12.7961 3.55246 12.3128 3.20083 11.9565C2.84919 11.6002 2.37228 11.4 1.875 11.4C1.37772 11.4 0.900806 11.6002 0.549175 11.9565C0.197544 12.3128 0 12.7961 0 13.3L0 28.5C0 31.0196 0.98772 33.4359 2.74587 35.2175C4.50403 36.9991 6.8886 38 9.375 38H31.875C32.3723 38 32.8492 37.7998 33.2008 37.4435C33.5525 37.0872 33.75 36.6039 33.75 36.1C33.75 35.5961 33.5525 35.1128 33.2008 34.7565C32.8492 34.4002 32.3723 34.2 31.875 34.2ZM39.375 0H13.125C11.6332 0 10.2024 0.600534 9.14752 1.66949C8.09263 2.73845 7.5 4.18827 7.5 5.7V24.7C7.5 26.2117 8.09263 27.6616 9.14752 28.7305C10.2024 29.7995 11.6332 30.4 13.125 30.4H39.375C40.8668 30.4 42.2976 29.7995 43.3525 28.7305C44.4074 27.6616 45 26.2117 45 24.7V5.7C45 4.18827 44.4074 2.73845 43.3525 1.66949C42.2976 0.600534 40.8668 0 39.375 0ZM38.6063 3.8L27.5812 14.972C27.4069 15.1501 27.1996 15.2914 26.9711 15.3879C26.7426 15.4844 26.4975 15.534 26.25 15.534C26.0025 15.534 25.7574 15.4844 25.5289 15.3879C25.3004 15.2914 25.0931 15.1501 24.9188 14.972L13.8937 3.8H38.6063ZM41.25 24.7C41.25 25.2039 41.0525 25.6872 40.7008 26.0435C40.3492 26.3998 39.8723 26.6 39.375 26.6H13.125C12.6277 26.6 12.1508 26.3998 11.7992 26.0435C11.4475 25.6872 11.25 25.2039 11.25 24.7V6.403L22.275 17.575C23.3297 18.6424 24.7594 19.242 26.25 19.242C27.7406 19.242 29.1703 18.6424 30.225 17.575L41.25 6.403V24.7Z" fill="white"/>
</svg>
