<svg width="36" height="36" viewBox="0 0 36 36" fill="none" xmlns="http://www.w3.org/2000/svg">
<circle cx="18" cy="18" r="18" fill="white"/>
<path fill-rule="evenodd" clip-rule="evenodd" d="M18.7396 9.20196C17.4356 9.60327 16.4619 10.5807 16.0626 11.8893C15.9421 12.2838 15.8582 13.158 15.8582 14.0158V15.4724H14.6012C13.814 15.4724 13.2802 15.5355 13.1728 15.6414C12.9803 15.8313 12.9311 18.6667 13.1154 18.9527C13.1842 19.0595 13.7026 19.1382 14.5059 19.164L15.7867 19.2052L15.8582 23.0788L15.9296 26.9524L17.6233 26.9922C18.75 27.0187 19.3837 26.9776 19.5159 26.8692C19.6768 26.7377 19.7148 25.9833 19.7148 22.9207V19.1347H21.1993C22.4213 19.1347 22.6991 19.0953 22.7705 18.9119C22.9348 18.4899 22.8656 15.8188 22.6858 15.6414C22.5758 15.533 22.0129 15.4724 21.1146 15.4724H19.7148V14.2751C19.7148 12.6462 19.8482 12.5144 21.4952 12.5144C22.5444 12.5144 22.7239 12.4783 22.8522 12.242C23.0622 11.8549 23.0432 9.37353 22.8286 9.16196C22.5891 8.92574 19.5405 8.95546 18.7396 9.20196Z" fill="#E6807D"/>
</svg>
