<svg width="46" height="46" viewBox="0 0 46 46" fill="none" xmlns="http://www.w3.org/2000/svg">
<path d="M38.64 9.58324C36.6082 7.54622 33.915 6.30295 31.0468 6.07799C28.1785 5.85303 25.3244 6.66122 23 8.35658C20.5613 6.54272 17.5259 5.72022 14.5051 6.05473C11.4843 6.38924 8.70247 7.8559 6.71974 10.1594C4.73701 12.4628 3.7007 15.432 3.81949 18.4689C3.93829 21.5059 5.20336 24.385 7.35996 26.5266L19.2625 38.4482C20.2592 39.4292 21.6015 39.9789 23 39.9789C24.3984 39.9789 25.7408 39.4292 26.7375 38.4482L38.64 26.5266C40.8778 24.275 42.1339 21.2294 42.1339 18.0549C42.1339 14.8804 40.8778 11.8348 38.64 9.58324ZM35.9375 23.8816L24.035 35.7841C23.8995 35.9208 23.7383 36.0294 23.5607 36.1035C23.383 36.1776 23.1924 36.2157 23 36.2157C22.8075 36.2157 22.6169 36.1776 22.4393 36.1035C22.2616 36.0294 22.1004 35.9208 21.965 35.7841L10.0625 23.8241C8.55933 22.2876 7.71763 20.2236 7.71763 18.0741C7.71763 15.9246 8.55933 13.8606 10.0625 12.3241C11.5942 10.8118 13.66 9.96383 15.8125 9.96383C17.9649 9.96383 20.0307 10.8118 21.5625 12.3241C21.7406 12.5037 21.9526 12.6463 22.1862 12.7436C22.4198 12.8409 22.6703 12.891 22.9233 12.891C23.1763 12.891 23.4268 12.8409 23.6604 12.7436C23.894 12.6463 24.1059 12.5037 24.2841 12.3241C25.8158 10.8118 27.8817 9.96383 30.0341 9.96383C32.1866 9.96383 34.2524 10.8118 35.7841 12.3241C37.3079 13.8404 38.1772 15.8933 38.2059 18.0428C38.2346 20.1923 37.4203 22.2676 35.9375 23.8241V23.8816Z" fill="white"/>
</svg>
