<svg width="36" height="36" viewBox="0 0 36 36" fill="none" xmlns="http://www.w3.org/2000/svg">
<circle cx="18" cy="18" r="18" fill="white"/>
<path fill-rule="evenodd" clip-rule="evenodd" d="M12.6892 9.14903C11.3127 9.48386 10.0073 10.5778 9.37547 11.9257L9 12.7267V18.0001V23.2735L9.37547 24.0745C9.85444 25.0965 10.8333 26.0754 11.8553 26.5543L12.6562 26.9298H17.9297H23.2031L24.0041 26.5543C25.026 26.0754 26.0049 25.0965 26.4839 24.0745L26.8594 23.2735V18.0001V12.7267L26.4839 11.9257C26.0049 10.9037 25.026 9.92486 24.0041 9.44589L23.2031 9.07042L18.2109 9.04539C15.4652 9.03161 12.9805 9.07815 12.6892 9.14903ZM23.7752 11.456C24.3586 11.6997 24.7454 12.4591 24.607 13.0891C24.4742 13.6932 23.7897 14.2032 23.1112 14.2032C21.9364 14.2032 21.291 12.8262 22.0272 11.8902C22.5269 11.255 23.0082 11.1355 23.7752 11.456ZM22.794 12.6036C22.7419 12.7393 22.785 12.9314 22.8918 13.038C23.1607 13.307 23.5796 13.113 23.527 12.744C23.473 12.3658 22.9254 12.2609 22.794 12.6036ZM20.09 13.6208C21.1463 14.1407 21.8935 14.9114 22.4107 16.0145C22.7202 16.6746 22.7812 17.0022 22.7812 18.0031C22.7812 19.0715 22.7316 19.3022 22.3228 20.1324C21.7894 21.2162 21.027 21.9598 19.9153 22.4811C19.2556 22.7904 18.9273 22.8517 17.9297 22.8517C16.9321 22.8517 16.6037 22.7904 15.9441 22.4811C14.8324 21.9598 14.07 21.2162 13.5366 20.1324C13.1278 19.3022 13.0781 19.0715 13.0781 18.0031C13.0781 17.0062 13.1396 16.6737 13.4439 16.0249C14.6656 13.4202 17.5576 12.374 20.09 13.6208ZM17.2749 14.2146C13.536 14.9189 12.9535 19.9864 16.4348 21.5229C18.9017 22.6115 21.7547 20.7223 21.7547 18.0001C21.7547 15.6562 19.5431 13.7874 17.2749 14.2146Z" fill="#E6807D"/>
</svg>
