<svg width="1920" height="590" viewBox="0 0 1920 590" fill="none" xmlns="http://www.w3.org/2000/svg">
<g opacity="0.4">
<g opacity="0.5">
<path d="M313.331 551.305C313.331 551.305 238.084 550.177 265.31 517.397C292.537 484.617 371.668 440.525 305.64 411.743C239.61 382.939 281.735 346.075 286.716 320.116C293.625 284.074 249.142 235.546 159.361 261.31C69.5794 287.074 81.482 341.499 -8.2788 367.239C-98.0174 392.977 -143.692 316.034 -159.54 279.638C-175.389 243.219 -154.605 185.502 -112.156 155.986C-69.7064 126.469 -28.2243 184.276 -69.881 197.882C-111.516 211.487 -191.925 160.376 -176.395 102.361C-160.886 44.37 -76.1179 -14.6293 -56.6826 94.877" stroke="black" stroke-width="1.26" stroke-miterlimit="10" stroke-linecap="round" stroke-linejoin="round"/>
</g>
<line opacity="0.5" x1="312.547" y1="551.5" x2="1962.55" y2="551.5" stroke="black"/>
</g>
</svg>