<svg width="109" height="130" viewBox="0 0 109 130" fill="none" xmlns="http://www.w3.org/2000/svg">
<g clip-path="url(#clip0_250_340)">
<path d="M13.493 90.1927C10.6349 86.5416 8.06678 82.6088 6.18212 78.3527C3.94537 72.876 2.76487 67.0551 2.46456 61.1716C3.04446 60.1493 6.56526 53.9425 8.93663 50.9903C11.5255 47.7669 15.0152 41.6226 13.7518 34.9254C12.882 30.3355 11.8982 27.6754 11.3598 26.4549C12.0225 25.5786 12.737 24.7337 13.5033 23.9304C14.9634 22.5117 16.5374 21.0408 18.536 20.4567C20.3068 19.9038 22.3778 20.2585 23.7551 21.5311C25.8572 23.6488 25.153 26.9869 24.19 29.501C22.6988 33.1625 20.4517 36.4485 18.6603 39.964C14.456 47.9964 11.0077 56.6964 10.6142 65.8659C10.521 70.9983 10.7695 76.4228 12.9441 81.1379C13.027 81.2631 13.1098 81.357 13.203 81.4405C13.2134 84.5491 14.5803 87.5743 16.175 90.1927C18.4842 93.8751 21.3941 97.1402 23.4134 101.01C23.4962 101.156 23.5687 101.313 23.6412 101.459C20.4103 97.5783 16.6513 94.1567 13.493 90.1927Z" fill="#FF8B87"/>
<path d="M102.445 86.6145C99.2349 95.6588 93.7052 103.743 86.85 110.388C81.517 109.596 65.4248 107.582 55.7633 110.67C46.0915 113.758 36.2539 124.753 33.137 128.477C30.8174 127.298 28.5807 125.921 26.6649 124.148C24.7181 122.374 23.0716 120.309 21.4769 118.212C19.3541 115.343 17.2623 112.214 16.4753 108.678C15.8954 105.256 19.0227 105.058 20.9591 107.04C22.8852 108.813 24.2107 111.338 26.6339 112.496C30.5274 114.321 33.8101 110.472 36.7303 108.417C40.3443 105.694 44.2793 103.274 48.5871 101.834C53.3609 100.436 58.6421 101.01 63.0224 103.357C64.7725 104.328 66.5225 105.392 67.8687 106.904C68.345 107.478 68.4175 108.26 69.3392 108.281C70.0433 108.323 70.6439 107.676 70.5818 106.977C70.5197 106.184 69.7844 105.35 69.2149 104.766C64.6068 100.416 58.1347 98.1102 51.8283 98.7361C45.2216 99.4246 39.433 103.326 34.2554 107.28C32.6503 108.448 31.1177 109.971 29.1813 110.534C29.0777 110.545 28.9742 110.545 28.8706 110.545C28.6635 108.323 28.1354 106.132 27.3898 104.025C25.7122 99.1638 22.5642 95.0746 19.5922 90.9645C18.0493 88.7634 16.5064 86.2285 15.8954 83.5267C15.4294 81.6177 15.3983 77.7997 17.8215 77.3198C20.3275 78.0813 21.1559 81.7533 21.974 83.9648C22.4607 85.2792 22.8127 86.8544 24.0657 87.6576C25.0391 88.2835 26.3646 87.9184 27.0791 87.063C28.6842 84.9141 30.2893 82.6817 32.5157 81.117C36.461 78.2795 41.5248 77.1425 46.2986 78.05C47.9865 78.3213 49.5502 79.0097 50.9378 79.9695C50.8963 79.9173 50.8549 79.8651 50.8135 79.813C50.7928 79.7817 50.7824 79.7504 50.7617 79.7191C50.8135 79.813 50.8756 79.8964 50.9481 79.9799C51.1035 80.0842 51.2588 80.199 51.4038 80.3137C51.8697 80.5015 52.3254 80.3763 52.636 80.0946C53.5784 79.7608 54.6139 78.3734 55.3284 77.7684C58.901 74.2737 61.2724 69.6734 62.5978 64.8748C65.8598 52.5445 58.8389 39.703 50.9792 30.6275C50.4614 30.0329 49.9126 29.4591 49.3638 28.8958C49.0427 28.562 48.701 28.2595 48.3904 27.9152C48.1936 27.6961 47.448 26.9868 47.8312 26.7051C48.6907 26.0584 50.1301 26.4443 51.062 26.6843C52.8224 27.1328 54.5103 27.8422 56.1776 28.562C56.8506 28.8541 57.5341 29.1462 58.2072 29.4278C58.6835 29.626 59.1806 29.8659 59.688 29.9911C61.8419 30.7735 63.623 28.7498 65.197 27.5605C67.237 25.8706 69.2563 24.1702 71.3067 22.5012C72.3318 21.677 73.3881 20.8529 74.4857 20.0288C74.61 19.9245 74.7446 19.8202 74.8896 19.7263C74.8896 19.7263 85.3381 25.4638 93.3428 20.3731C96.3044 24.6084 98.7068 29.2609 100.612 34.0595C102.787 39.8387 104.661 45.7743 105.738 51.8664C105.945 53.1287 106.121 54.3909 106.266 55.6636C106.401 56.2477 106.287 56.9675 106.442 57.5621C106.442 57.6247 106.442 57.6978 106.442 57.7603C106.504 59.5233 106.525 61.2967 106.546 63.0597C106.608 71.0399 105.024 79.041 102.445 86.6145Z" fill="#FF8B87"/>
<path d="M50.9895 77.2573L50.9792 77.2468C51.0103 77.2781 51.031 77.3094 51.062 77.3303C51.031 77.3198 51.0103 77.2885 50.9895 77.2573Z" fill="#1268AE"/>
<path d="M70.5507 56.2165C69.422 56.1643 67.848 56.3625 68.169 57.8751C68.5832 59.2208 70.0433 58.5323 71.0478 58.6679C75.0656 58.7931 78.4001 61.6409 79.653 65.4172C80.6472 68.2338 80.5229 71.2799 80.4193 74.2216C80.2433 78.0292 79.4356 82.0036 77.0746 85.081C76.8157 85.3835 76.5465 85.6547 76.2669 85.8947C76.2876 84.1213 75.9044 81.6281 75.8009 80.7519C75.3452 79.3018 73.2224 79.7817 73.4399 81.2839C73.6884 83.1407 73.8851 85.008 73.8023 86.8753C73.8023 86.9483 73.8023 87.0109 73.8126 87.0735C73.1603 87.1986 72.4975 87.1882 71.8555 87.0317C72.0005 84.9767 71.9798 82.9216 71.8348 80.877C71.7934 79.3957 69.6705 79.2497 69.4324 80.6997C69.3909 81.4821 69.5359 82.2853 69.5256 83.0781C69.5463 83.9648 69.5463 84.8411 69.5152 85.7278C69.0803 85.3105 68.6971 84.7994 68.3761 84.1943C67.382 82.3062 67.382 80.1155 67.4234 78.0396C67.5373 75.0353 67.8273 72.0101 67.4545 69.0057C67.1956 67.4201 64.876 67.7748 65.0521 69.3604C65.4145 72.2291 65.0935 75.1292 65.0003 77.9979C64.8657 81.117 65.1867 84.5177 67.3406 86.9483C68.4797 88.2418 70.0019 89.2328 71.7105 89.5145C76.5982 90.3595 80.088 86.1972 81.4549 81.9202C82.5732 78.8637 82.8632 75.5777 82.9046 72.3439C82.915 70.6227 82.8943 68.891 82.6147 67.1906C81.6206 61.0359 76.94 56.1747 70.5507 56.2165Z" fill="#1268AE"/>
<path d="M103.667 65.7926C102.165 65.0624 101.648 67.0757 101.12 68.0771C99.7424 71.2066 99.5042 74.67 98.8725 77.9977C98.4272 80.3865 97.7541 82.7754 96.4287 84.8305C96.3872 84.9035 96.3355 84.9661 96.294 85.0391C96.263 83.9125 96.2423 82.7754 96.2008 81.6488C96.1801 81.0646 96.118 80.4909 96.0973 79.9067C96.1387 79.5833 96.0455 79.2391 95.8384 78.9783C95.0928 78.0394 93.5913 78.6862 93.6741 79.865C93.8191 82.2017 93.8502 84.5488 93.9227 86.8959C93.9227 86.969 93.933 87.042 93.9434 87.1046C93.2496 87.3967 92.5351 87.4593 91.8309 87.2715C91.8723 87.1463 91.893 87.0107 91.8827 86.8646C91.8205 85.133 91.8309 83.4013 91.8102 81.6696C91.7998 81.1168 91.8205 80.5848 91.7895 80.0319C91.5306 78.5297 89.356 78.7383 89.3767 80.2405C89.387 81.9513 89.3974 83.6621 89.4181 85.3729C86.6015 81.2524 87.5127 72.8444 88.2894 68.0667C88.9728 63.9462 90.4226 59.7631 93.5809 56.9048C95.1342 55.4548 97.05 54.0986 99.2246 53.963C100.581 54.1508 101.244 52.0644 99.6802 51.5742C94.4404 51.2403 89.0867 57.2281 87.4299 61.8703C85.6798 66.7106 85.1103 71.9264 85.1414 77.0588C85.0792 81.9722 86.3219 88.7424 91.9759 89.8168C94.7407 90.1819 97.2364 88.2208 98.6033 85.9467C100.944 82.2643 101.327 77.8099 102.072 73.5955C102.373 71.9577 102.766 70.3199 103.46 68.8073C103.895 67.8163 104.951 66.5958 103.667 65.7926Z" fill="#1268AE"/>
<path d="M108.979 58.9393C108.958 57.3849 108.927 55.8202 108.865 54.2659C108.865 54.1615 108.855 54.0572 108.855 53.9529C108.855 53.8799 108.844 53.8069 108.844 53.7443C108.855 53.5982 108.823 53.4626 108.782 53.3374C108.72 52.8784 108.647 52.4403 108.637 52.0752C108.016 46.7446 106.649 41.5287 105.013 36.4276C102.269 27.9571 98.4578 19.6639 92.7624 12.7789C90.4842 10.0563 77.9439 -3.24416 74.7338 0.740754C73.9675 1.85695 74.5784 8.33504 74.6509 10.2545C74.6716 11.5376 74.8684 12.8311 74.7131 14.1142C71.8032 16.284 69.1419 18.3808 66.3149 20.7592C64.5441 22.1571 62.9184 23.8157 60.9509 24.9423C60.6713 25.1092 60.3813 24.911 60.1121 24.8171C59.3561 24.5146 58.6002 24.2017 57.8443 23.8783C54.6652 22.7099 48.7316 19.4344 45.9046 22.4491C45.2936 23.1168 45.1176 24.2017 45.4282 25.0779C45.5421 26.1107 46.8987 26.9244 47.4993 27.7172C50.2538 30.5442 52.6977 33.6841 54.7998 37.0222C58.1342 42.4885 60.7437 48.664 61.0544 55.1317C61.1787 60.3997 59.3044 65.5425 56.5084 69.9239C55.1519 71.812 53.6814 73.3872 51.9107 74.9728C49.5289 73.2307 46.3499 72.73 43.4607 72.5944C35.6943 72.4275 29.4914 76.3915 25.2457 82.7549C23.7753 79.9905 23.4853 76.5897 21.3521 74.18C18.8669 71.0088 15.6774 71.9163 14.1656 74.6286C13.3578 71.6973 13.1507 68.599 13.0472 65.5738C12.8919 57.4475 15.46 49.5612 18.9083 42.3007C20.3787 39.1607 22.0563 36.1147 23.7753 33.1104C25.9499 29.2298 28.4455 24.7546 27.2754 20.1437C26.5712 17.4524 24.1481 15.4912 21.435 15.1469C17.6035 14.5106 14.1863 17.0142 11.6803 19.6639C6.40943 25.2136 3.49959 32.5575 1.84274 39.9536C-1.23279 53.0558 -0.756443 67.5559 5.47745 79.6775C8.21126 84.7265 11.6389 89.4103 15.6049 93.5517C18.1524 96.2013 20.6998 98.8719 22.9883 101.761C23.7753 102.794 24.7176 104.098 25.2561 105.433C24.7383 104.797 24.2413 104.15 23.7235 103.65C22.9883 102.836 22.1909 102.074 21.2693 101.48C18.6908 99.9046 15.0975 100.51 14.238 103.723C13.741 105.579 14.2691 107.561 15.0147 109.283C16.4437 112.6 18.4216 115.646 20.7101 118.431C23.5475 122.228 27.1408 125.389 31.314 127.59C36.5123 129.698 39.7018 129.76 42.2388 129.927C58.7969 130.939 74.5577 122.458 86.4974 111.432C96.6974 102.273 104.184 90.3074 107.063 76.7462C108.461 70.9149 109.134 64.9479 108.979 58.9393ZM47.3854 24.0139C47.375 24.0139 47.375 24.0035 47.3647 24.0035H47.375C47.4165 24.0243 47.4682 24.0556 47.5097 24.0765C47.5097 24.0765 47.5097 24.0765 47.4993 24.0765C47.4993 24.0765 47.4993 24.0765 47.5097 24.0765C47.5304 24.0869 47.5407 24.1078 47.5614 24.1182C47.5097 24.0869 47.4475 24.0452 47.3854 24.0139ZM13.5339 87.4909C10.6758 83.8398 8.1077 79.907 6.22304 75.6509C3.98629 70.1742 2.80578 64.3533 2.50548 58.4698C3.07502 57.4475 6.60618 51.2407 8.97755 48.2885C11.5664 45.0651 15.0561 38.9208 13.7928 32.2237C12.9229 27.6337 11.9392 24.9736 11.4007 23.7531C12.0634 22.8768 12.7779 22.0319 13.5442 21.2286C15.0043 19.8099 16.5783 18.3391 18.5769 17.7549C20.3477 17.202 22.4187 17.5567 23.796 18.8293C25.8981 20.947 25.194 24.2851 24.2309 26.7992C22.7398 30.4607 20.4927 33.7467 18.7012 37.2622C14.4969 45.2946 11.0486 53.9946 10.6551 63.1641C10.5619 68.2965 10.8104 73.721 12.9851 78.4361C13.0679 78.5613 13.1507 78.6552 13.2439 78.7387C13.2543 81.8473 14.6212 84.8725 16.2159 87.4909C18.5251 91.1733 21.435 94.4384 23.4543 98.3085C23.5371 98.4546 23.6096 98.6111 23.6821 98.7571C20.4512 94.8765 16.6923 91.4549 13.5339 87.4909ZM102.486 83.9128C99.2759 92.9571 93.7461 101.042 86.8909 107.687C81.5579 106.894 65.4658 104.881 55.8043 107.968C46.1324 111.056 36.2949 122.051 33.1779 125.775C30.8583 124.596 28.6216 123.219 26.7058 121.446C24.759 119.673 23.1125 117.607 21.5178 115.51C19.395 112.642 17.3032 109.512 16.5162 105.976C15.9363 102.554 19.0636 102.356 21.0001 104.338C22.9262 106.111 24.2516 108.636 26.6748 109.794C30.5684 111.619 33.851 107.77 36.7712 105.715C40.3852 102.992 44.3202 100.572 48.628 99.1327C53.3915 97.7348 58.683 98.3085 63.0633 100.656C64.8134 101.626 66.5634 102.69 67.9096 104.202C68.386 104.776 68.4585 105.559 69.3801 105.579C70.0842 105.621 70.6848 104.974 70.6227 104.275C70.5606 103.483 69.8253 102.648 69.2558 102.064C64.6477 97.7139 58.1756 95.4085 51.8692 96.0344C45.2626 96.7229 39.4739 100.624 34.2963 104.578C32.6912 105.746 31.1586 107.269 29.2222 107.833C29.1186 107.843 29.0151 107.843 28.9115 107.843C28.7044 105.621 28.1763 103.431 27.4307 101.323C25.7532 96.4621 22.6051 92.3729 19.6332 88.2628C18.0902 86.0617 16.5473 83.5268 15.9363 80.825C15.4703 78.916 15.4393 75.098 17.8624 74.6181C20.3684 75.3796 21.1968 79.0516 22.0149 81.2631C22.5016 82.5775 22.8537 84.1527 24.1067 84.956C25.0801 85.5819 26.4055 85.2168 27.1201 84.3614C28.7251 82.202 30.3302 79.98 32.5566 78.4153C36.502 75.5779 41.5657 74.4408 46.3395 75.3484C48.0274 75.6196 49.5911 76.3081 50.9787 77.2678C50.9373 77.2156 50.8958 77.1635 50.8544 77.1113C50.8337 77.08 50.8234 77.0487 50.8027 77.0174C50.8544 77.1113 50.9166 77.1948 50.989 77.2782C51.1444 77.3825 51.2997 77.4973 51.4447 77.612C51.9107 77.7998 52.3663 77.6746 52.677 77.393C53.6193 77.0592 54.6548 75.6717 55.3693 75.0667C58.9419 71.5721 61.3133 66.9717 62.6388 62.1731C65.9007 49.8428 58.8798 37.0014 51.0201 27.9258C50.5023 27.3312 49.9535 26.7574 49.4047 26.1941C49.0837 25.8603 48.7419 25.5578 48.4313 25.2136C48.2345 24.9945 47.4889 24.2851 47.8721 24.0035C48.7316 23.3463 50.171 23.7427 51.103 23.9826C52.8634 24.4312 54.5513 25.1405 56.2185 25.8603C56.8916 26.1524 57.575 26.4445 58.2481 26.7261C58.7245 26.9244 59.2215 27.1643 59.7289 27.2895C61.8828 28.0718 63.6639 26.0481 65.238 24.8589C67.2779 23.1689 69.2972 21.4686 71.3476 19.7995C72.3728 18.9754 73.429 18.1513 74.5267 17.3272C74.6509 17.2229 74.7855 17.1185 74.9305 17.0247C74.9305 17.0247 85.379 22.7621 93.3837 17.6714C96.3453 21.9067 98.7477 26.5592 100.653 31.3578C102.828 37.137 104.702 43.0726 105.779 49.1648C105.986 50.427 106.162 51.6892 106.307 52.9619C106.442 53.5461 106.328 54.2659 106.483 54.8605C106.483 54.9231 106.483 54.9961 106.483 55.0587C106.545 56.8216 106.566 58.595 106.587 60.358C106.649 68.3382 105.064 76.3394 102.486 83.9128Z" fill="#1268AE"/>
<path d="M89.356 23.5132C90.1533 23.0855 91.1371 22.9707 91.0025 21.7815C90.5365 19.9768 88.6725 21.0409 87.6577 21.6772C86.1872 22.6056 84.8618 23.774 83.7848 25.151C82.5111 26.7992 81.7137 28.8021 81.4238 30.8676C81.3306 31.5247 81.8691 32.1402 82.5007 32.2132C84.0023 32.3384 83.8159 30.565 84.1887 29.574C84.5304 28.4683 85.0792 27.4355 85.7937 26.528C86.7775 25.3075 87.9994 24.2851 89.356 23.5132Z" fill="#1268AE"/>
<path d="M71.5448 36.6359C72.4458 37.1888 73.6263 36.1874 73.2742 35.1964C72.9325 34.1115 69.6498 32.9535 68.5418 32.9431C66.098 32.8492 63.6645 33.7672 61.6659 35.1546C61.0756 35.6136 60.2576 36.0726 60.2679 36.9176C60.2472 38.0025 61.7487 38.5241 62.3908 37.6791C63.2192 36.9489 64.1926 36.4169 65.2074 36.01C67.5581 35.019 69.4116 35.2277 71.5448 36.6359ZM62.5461 37.4705C62.5047 37.5435 62.4529 37.6165 62.4011 37.6791C62.5047 37.5539 62.5771 37.4183 62.6289 37.2618C62.6082 37.3349 62.5771 37.3975 62.5461 37.4705Z" fill="#1268AE"/>
<path d="M51.2691 41.5288C53.8269 43.2292 53.7751 40.3605 53.0813 39.3695C47.5102 27.5608 30.6828 30.3565 24.7388 40.4231C17.9043 50.8965 24.2004 67.0031 37.072 68.0671C45.6255 68.7869 53.5991 64.489 56.0015 55.8829C56.4261 54.7041 57.0163 52.7951 55.3906 52.3048C54.0961 52.0023 52.9674 52.9933 51.9215 53.5983C49.2395 55.3821 46.0397 57.4267 42.726 56.1958C40.9553 55.5386 39.6608 54.0469 38.6253 52.5134C36.8235 49.749 37.3309 46.004 39.5573 43.636C42.3946 40.35 47.448 39.7346 51.2691 41.5288Z" fill="#1268AE"/>
<path d="M78.0894 35.6346C76.4429 36.4691 77.0953 38.0652 78.4829 38.7433C79.0835 39.0771 79.7255 39.2961 80.3572 39.5674C80.7196 39.7134 81.0614 39.9325 81.4652 39.9638C83.7123 39.8907 83.2567 36.7404 83.0807 35.1965C82.3972 32.5781 79.4667 34.9148 78.0894 35.6346Z" fill="#1268AE"/>
</g>
<defs>
<clipPath id="clip0_250_340">
<rect width="109" height="130" fill="white"/>
</clipPath>
</defs>
</svg>
