<svg width="258" height="28" viewBox="0 0 258 28" fill="none" xmlns="http://www.w3.org/2000/svg">
<path d="M21.002 10.9951C21.002 13.8564 19.9668 16.3223 17.8965 18.3926C15.8262 20.4434 13.3604 21.4688 10.499 21.4688C7.62793 21.4688 5.16211 20.4434 3.10156 18.3926C1.03125 16.3223 -0.00390625 13.8564 -0.00390625 10.9951C-0.00390625 8.14355 1.03125 5.68262 3.10156 3.6123C5.17188 1.54199 7.6377 0.506836 10.499 0.506836C13.3604 0.506836 15.8262 1.54199 17.8965 3.6123C19.9668 5.68262 21.002 8.14355 21.002 10.9951ZM17.999 10.9951C17.999 8.94434 17.2617 7.18164 15.7871 5.70703C14.3125 4.23242 12.5498 3.49512 10.499 3.49512C8.44824 3.49512 6.68555 4.23242 5.21094 5.70703C3.73633 7.18164 2.99902 8.94434 2.99902 10.9951C2.99902 13.0459 3.73633 14.8086 5.21094 16.2832C6.68555 17.7578 8.44824 18.4951 10.499 18.4951C12.5498 18.4951 14.3125 17.7578 15.7871 16.2832C17.2617 14.8086 17.999 13.0459 17.999 10.9951ZM34.127 12.2549C34.127 11.2393 33.7559 10.3604 33.0137 9.61816C32.2715 8.87598 31.3926 8.50488 30.377 8.50488C29.3613 8.50488 28.4824 8.87598 27.7402 9.61816C26.998 10.3604 26.627 11.2393 26.627 12.2549V21.2197H23.624V12.2549C23.624 10.4678 24.3027 8.89551 25.6602 7.53809C27.0176 6.18066 28.5898 5.50195 30.377 5.50195C32.1543 5.50195 33.7217 6.18066 35.0791 7.53809C36.4463 8.90527 37.1299 10.4775 37.1299 12.2549V21.2197H34.127V12.2549ZM55.7627 19.5059C55.7627 21.6738 54.9717 23.5391 53.3896 25.1016C51.8174 26.6836 49.9375 27.4746 47.75 27.4746C46.3926 27.4746 45.1035 27.1279 43.8828 26.4346C43.2676 26.0928 42.7158 25.6875 42.2275 25.2188C41.749 24.7598 41.3145 24.2373 40.9238 23.6514L43.458 21.9961C44.5518 23.6465 45.9824 24.4717 47.75 24.4717C49.2344 24.4717 50.4209 23.9834 51.3096 23.0068C52.1396 22.0889 52.6133 20.8877 52.7305 19.4033C51.2461 20.7803 49.5029 21.4688 47.501 21.4688C45.3525 21.4688 43.5215 20.6826 42.0078 19.1104C40.5039 17.5479 39.752 15.6777 39.752 13.5C39.752 11.3125 40.5381 9.43262 42.1104 7.86035C43.7119 6.28809 45.5918 5.50195 47.75 5.50195C49.9375 5.50195 51.8174 6.28809 53.3896 7.86035C54.9717 9.43262 55.7627 11.3125 55.7627 13.5V19.5059ZM52.7598 13.5C52.7598 12.1426 52.2666 10.9707 51.2803 9.98438C50.2939 8.99805 49.1172 8.50488 47.75 8.50488C46.3828 8.50488 45.2061 8.99805 44.2197 9.98438C43.2432 10.9609 42.7549 12.1328 42.7549 13.5C42.7549 14.877 43.2432 16.0537 44.2197 17.0303C45.1963 18.0068 46.373 18.4951 47.75 18.4951C49.127 18.4951 50.3037 18.0068 51.2803 17.0303C52.2666 16.0439 52.7598 14.8672 52.7598 13.5ZM215.284 7.17188C214.552 6.05859 213.619 5.16992 212.486 4.50586C211.354 3.83203 210.138 3.49512 208.839 3.49512C206.788 3.49512 205.025 4.23242 203.551 5.70703C202.076 7.18164 201.339 8.94434 201.339 10.9951C201.339 13.0459 202.076 14.8086 203.551 16.2832C205.025 17.7578 206.788 18.4951 208.839 18.4951C210.138 18.4951 211.363 18.1533 212.516 17.4697C213.629 16.8252 214.547 15.9512 215.27 14.8477L217.789 16.5029C216.812 18.0264 215.519 19.2373 213.907 20.1357C212.345 21.0244 210.655 21.4688 208.839 21.4688C205.968 21.4688 203.502 20.4434 201.441 18.3926C199.371 16.3223 198.336 13.8564 198.336 10.9951C198.336 8.14355 199.371 5.68262 201.441 3.6123C203.512 1.54199 205.978 0.506836 208.839 0.506836C210.626 0.506836 212.335 0.960938 213.966 1.86914C215.519 2.77734 216.803 4.00293 217.818 5.5459L215.284 7.17188ZM232.73 19.374C231.246 20.7705 229.493 21.4688 227.472 21.4688C225.323 21.4688 223.492 20.6826 221.979 19.1104C220.475 17.5479 219.723 15.6777 219.723 13.5C219.723 11.3027 220.504 9.42285 222.066 7.86035C223.639 6.28809 225.523 5.50195 227.721 5.50195C229.918 5.50195 231.803 6.28809 233.375 7.86035C234.947 9.43262 235.733 11.3125 235.733 13.5V21.2197H232.73V19.374ZM232.73 13.5C232.73 12.1426 232.237 10.9707 231.251 9.98438C230.265 8.99805 229.088 8.50488 227.721 8.50488C226.354 8.50488 225.177 8.99805 224.19 9.98438C223.214 10.9609 222.726 12.1328 222.726 13.5C222.726 14.877 223.214 16.0537 224.19 17.0303C225.167 18.0068 226.344 18.4951 227.721 18.4951C229.098 18.4951 230.274 18.0068 231.251 17.0303C232.237 16.0439 232.73 14.8672 232.73 13.5ZM243.233 21.2197H240.23V8.75391H237.74V5.75098H240.23V0.755859H243.233V5.75098H245.738V8.75391H243.233V21.2197ZM257.618 16.8984C257.618 18.168 257.159 19.2471 256.241 20.1357C255.323 21.0244 254.234 21.4688 252.975 21.4688C251.861 21.4688 250.885 21.1221 250.045 20.4287C249.205 19.7256 248.663 18.8174 248.419 17.7041L251.319 16.9277C251.515 17.9727 252.066 18.4951 252.975 18.4951C253.404 18.4951 253.79 18.3389 254.132 18.0264C254.474 17.7041 254.645 17.3281 254.645 16.8984C254.645 16.1855 254.103 15.5947 253.019 15.126C251.271 14.3447 250.265 13.8516 250.001 13.6465C248.917 12.8457 248.375 11.6787 248.375 10.1455C248.375 8.89551 248.829 7.80664 249.737 6.87891C250.655 5.96094 251.749 5.50195 253.019 5.50195C254.142 5.50195 255.118 5.8584 255.948 6.57129C256.749 7.25488 257.281 8.1582 257.545 9.28125L254.615 10.043C254.391 9.01758 253.858 8.50488 253.019 8.50488C252.579 8.50488 252.193 8.6709 251.861 9.00293C251.529 9.33496 251.363 9.71582 251.363 10.1455C251.363 10.8486 251.905 11.4395 252.989 11.918C253.849 12.2891 254.522 12.6016 255.011 12.8555C255.509 13.0996 255.836 13.2803 255.992 13.3975C257.076 14.2178 257.618 15.3848 257.618 16.8984Z" fill="#1A1442"/>
<path d="M75.7725 21.2197H72.7695V3.74414H66.5293V0.755859H82.0273V3.74414H75.7725V21.2197ZM84.6641 5.75098H87.6523V21.2197H84.6641V5.75098ZM84.6641 0.755859H87.6523V3.74414H84.6641V0.755859ZM102.037 12.2549C102.037 11.2393 101.666 10.3604 100.924 9.61816C100.182 8.87598 99.3027 8.50488 98.2871 8.50488C97.2715 8.50488 96.3926 8.87598 95.6504 9.61816C94.9082 10.3604 94.5371 11.2393 94.5371 12.2549V21.2197H91.5342V12.2549C91.5342 10.4678 92.2129 8.89551 93.5703 7.53809C94.9277 6.18066 96.5 5.50195 98.2871 5.50195C100.064 5.50195 101.632 6.18066 102.989 7.53809C104.356 8.90527 105.04 10.4775 105.04 12.2549V21.2197H102.037V12.2549ZM108.922 5.75098H111.91V21.2197H108.922V5.75098ZM108.922 0.755859H111.91V3.74414H108.922V0.755859ZM131.173 13.2949C131.153 15.5703 130.382 17.499 128.858 19.0811C127.335 20.6729 125.445 21.4688 123.189 21.4688C120.963 21.4688 119.068 20.7021 117.506 19.1689C115.943 17.6357 115.162 15.7559 115.162 13.5293C115.162 11.3223 115.938 9.43262 117.491 7.86035C119.044 6.28809 120.929 5.50195 123.146 5.50195C124.767 5.50195 126.246 5.95117 127.584 6.84961C128.922 7.74805 129.923 8.9541 130.587 10.4678L119.996 17.3525C120.943 18.1143 122.008 18.4951 123.189 18.4951C124.615 18.4951 125.792 17.9873 126.72 16.9717C127.647 15.9561 128.121 14.7305 128.141 13.2949H131.173ZM126.339 9.64746C125.382 8.88574 124.317 8.50488 123.146 8.50488C121.759 8.50488 120.582 8.99805 119.615 9.98438C118.648 10.9707 118.165 12.1523 118.165 13.5293C118.165 13.9004 118.233 14.3301 118.37 14.8184L126.339 9.64746Z" fill="#FF8B87"/>
<path d="M151.183 15.375C151.183 16.9668 150.602 18.3438 149.439 19.5059C148.277 20.6484 146.9 21.2197 145.309 21.2197H134.439V0.755859H144.811C146.402 0.755859 147.779 1.33691 148.941 2.49902C150.104 3.66113 150.685 5.03809 150.685 6.62988C150.685 8.40723 149.977 9.81348 148.561 10.8486C150.309 11.8643 151.183 13.373 151.183 15.375ZM148.18 15.375C148.18 14.5938 147.896 13.9199 147.33 13.3535C146.764 12.7871 146.09 12.5039 145.309 12.5039H137.428V18.2461H145.309C146.08 18.2461 146.749 17.9629 147.315 17.3965C147.892 16.8203 148.18 16.1465 148.18 15.375ZM147.682 6.62988C147.682 5.83887 147.398 5.16016 146.832 4.59375C146.266 4.02734 145.592 3.74414 144.811 3.74414H137.428V9.50098H144.811C145.592 9.50098 146.266 9.21777 146.832 8.65137C147.398 8.08496 147.682 7.41113 147.682 6.62988ZM155.709 5.75098H158.697V21.2197H155.709V5.75098ZM155.709 0.755859H158.697V3.74414H155.709V0.755859ZM169.581 8.50488C168.468 8.50488 167.525 8.86133 166.754 9.57422C165.973 10.2773 165.582 11.1709 165.582 12.2549V21.2197H162.579V12.2549C162.579 10.3994 163.277 8.81738 164.674 7.50879C166.08 6.19043 167.716 5.52148 169.581 5.50195V8.50488ZM186.954 13.5C186.954 15.6875 186.168 17.5674 184.596 19.1396C183.023 20.6924 181.139 21.4688 178.941 21.4688C176.734 21.4688 174.85 20.6924 173.287 19.1396C171.725 17.5771 170.943 15.6973 170.943 13.5C170.943 11.3125 171.695 9.4375 173.199 7.875C174.703 6.29297 176.534 5.50195 178.692 5.50195C180.724 5.50195 182.477 6.20996 183.951 7.62598V0.755859H186.954V13.5ZM183.951 13.5C183.951 12.1426 183.458 10.9707 182.472 9.98438C181.485 8.99805 180.309 8.50488 178.941 8.50488C177.574 8.50488 176.397 8.99805 175.411 9.98438C174.435 10.9609 173.946 12.1328 173.946 13.5C173.946 14.877 174.435 16.0537 175.411 17.0303C176.388 18.0068 177.564 18.4951 178.941 18.4951C180.318 18.4951 181.495 18.0068 182.472 17.0303C183.458 16.0439 183.951 14.8672 183.951 13.5Z" fill="#1268AE"/>
</svg>
