<svg width="441" height="661" viewBox="0 0 441 661" fill="none" xmlns="http://www.w3.org/2000/svg">
<path d="M333.995 416.31C345.611 378.845 310.928 324.203 264.138 306.534C233.544 294.918 200.66 308.17 185.936 338.272C172.521 365.757 190.026 399.296 232.89 428.417C258.248 445.595 280.171 452.139 300.784 448.212C315.508 445.267 328.924 432.507 333.995 416.31Z" fill="white"/>
<path d="M228.138 523.135C235.991 497.94 219.958 459.33 188.056 427.101C157.299 396.017 131.614 392.254 105.11 414.831C72.5537 442.479 75.4985 485.343 112.636 522.48C140.448 550.293 172.023 561.254 199.017 552.583C211.124 548.657 224.376 535.078 228.138 523.135Z" fill="white"/>
<path d="M342.338 261.379C345.937 253.199 345.773 238.966 342.011 227.677C338.248 215.407 321.397 195.611 306.836 186.286C283.278 170.908 248.594 164.691 228.635 172.217C217.183 176.47 203.768 189.231 197.878 201.338C179.227 240.275 206.058 272.668 267.081 285.265C304.055 292.791 332.685 283.793 342.338 261.379Z" fill="white"/>
<path d="M65.521 532.299C73.8647 500.724 59.9586 446.572 37.5452 424.486C14.1502 401.418 -27.7317 411.234 -45.237 443.791C-62.4151 475.366 -38.2022 537.861 -1.3919 557.657C27.8927 573.199 57.3409 562.074 65.521 532.299Z" fill="white"/>
<path d="M153.866 342.849C159.428 327.143 159.264 315.855 152.557 277.081C148.14 250.741 146.34 226.692 146.176 192.172C145.849 134.584 142.25 118.879 124.09 100.719C108.384 84.6861 93.0059 78.142 72.3922 78.142C59.6313 78.142 52.4328 79.778 44.0892 84.1953C26.911 93.5205 5.64286 116.098 -10.0629 141.292C-28.2226 170.577 -49.1636 191.518 -79.4298 210.332C-98.0803 222.111 -104.788 227.51 -118.53 242.234C-132.764 257.449 -135.709 262.03 -138.981 272.828C-146.67 296.877 -139.471 322.726 -119.185 343.012C-100.698 361.499 -86.9554 364.771 -25.4414 365.753C9.2421 366.08 36.8907 368.207 56.5228 371.806C106.421 381.132 119.837 379.496 139.141 362.481C147.649 354.955 151.248 350.047 153.866 342.849Z" fill="white"/>
</svg>
