<svg width="487" height="451" viewBox="0 0 487 451" fill="none" xmlns="http://www.w3.org/2000/svg">
<path d="M146.636 6.14914C111.877 24.3255 97.5792 87.4472 118.037 133.087C131.369 162.972 163.951 176.949 195.68 166.168C224.63 156.304 236.073 120.244 226.504 69.315C220.808 39.2204 209.993 19.0598 192.675 7.20932C180.206 -1.15641 161.698 -1.67331 146.636 6.14914Z" fill="white"/>
<path d="M297.026 5.90482C273.622 18.0988 257.545 56.6903 257.181 102.037C256.821 145.765 272.262 166.633 306.959 169.511C349.52 173.106 377.841 140.798 377.995 88.2774C378.11 48.9452 363.622 18.8249 338.441 5.79464C327.121 -0.0226763 308.148 0.153161 297.026 5.90482Z" fill="white"/>
<path d="M30.8813 109.465C22.5426 112.679 12.5641 122.83 7.21152 133.458C1.16282 144.777 -0.995296 170.684 2.65714 187.584C8.36072 215.134 28.4049 244.113 47.814 252.962C58.9046 258.085 77.4126 258.602 90.1506 254.243C130.913 240.017 134.969 198.152 100.879 145.994C80.148 114.467 53.5815 100.508 30.8813 109.465Z" fill="white"/>
<path d="M418.176 114.768C389.901 131.112 361.302 179.153 361.441 210.619C361.577 243.474 398.066 266.255 433.496 255.716C468 245.637 495.249 184.404 483.335 144.342C473.71 112.617 445.059 99.5761 418.176 114.768Z" fill="white"/>
<path d="M221.537 185.685C206.477 192.813 198.587 200.888 175.819 232.982C160.254 254.685 144.467 272.917 120.102 297.37C79.4933 338.204 70.8928 351.829 70.8176 377.511C70.5206 399.953 76.7221 415.473 91.2555 430.091C100.252 439.141 106.488 443.092 115.503 445.895C134.227 451.503 165.233 450.668 194.173 444.043C227.745 436.275 257.359 436.361 292.041 444.561C313.544 449.482 322.101 450.433 342.232 449.798C363.057 449.165 368.382 448.023 378.346 442.731C400.823 431.228 414.079 407.899 414.163 379.21C414.239 353.065 406.871 341.013 364.197 296.696C339.976 271.869 321.992 250.762 310.703 234.302C282.136 192.341 271.517 183.98 245.84 182.286C234.506 181.558 228.487 182.466 221.537 185.685Z" fill="white"/>
</svg>
